<svg width="44" height="44" viewBox="0 0 44 44" fill="none" xmlns="http://www.w3.org/2000/svg">
  <circle cx="21.7778" cy="21.7778" r="21.7778" fill="#E3E3E3" />
  <path
    d="M37 21.5C37 25.6109 35.367 29.5533 32.4602 32.4602C29.5533 35.367 25.6109 37 21.5 37C17.3891 37 13.4467 35.367 10.5398 32.4602C7.63303 29.5533 6 25.6109 6 21.5L15.4624 21.5C15.4624 23.1013 16.0985 24.637 17.2308 25.7692C18.363 26.9015 19.8987 27.5376 21.5 27.5376C23.1013 27.5376 24.637 26.9015 25.7692 25.7692C26.9015 24.637 27.5376 23.1013 27.5376 21.5H37Z"
    fill="#3A3A3A" />
  <path
    d="M37 21.5C37 25.6109 35.367 29.5533 32.4602 32.4602C29.5533 35.367 25.6109 37 21.5 37C17.3891 37 13.4467 35.367 10.5398 32.4602C7.63303 29.5533 6 25.6109 6 21.5L15.4624 21.5C15.4624 23.1013 16.0985 24.637 17.2308 25.7692C18.363 26.9015 19.8987 27.5376 21.5 27.5376C23.1013 27.5376 24.637 26.9015 25.7692 25.7692C26.9015 24.637 27.5376 23.1013 27.5376 21.5H37Z"
    fill="#3A3A3A" />
</svg>