<svg width="557" height="532" xmlns="http://www.w3.org/2000/svg" version="1.0" preserveAspectRatio="xMidYMid meet">
 <g>
  <path fill="#307D7E" stroke-dasharray="5,2,2,2" d="m377.80833,17.91577c49.1,12.5 94.6,42.5 124.4,82.1c17.80001,23.7 31.70001,51.5 39.00001,78.2c5.1,18.4 6.3,27.2 6.8,50.9c0.5,19.4 0.3,23.5 -1.7,35c-3.4,20.6 -8.7,36.1 -19.2,56.3c-12.5,24 -31.70001,48.6 -50.80001,65c-18.7,16 -46.2,31.4 -64,35.8c-17.7,4.3 -18.1,4.5 -19.6,7.9c-2,4.7 -4.3,7.7 -11.9,15.7c-3.9,4.1 -9.5,10.3 -12.5,13.8c-3,3.6 -7.8,9 -10.6,12c-2.9,3 -6.7,7.3 -8.4,9.5c-5.6,7.3 -19.4,20.5 -27.4,26.3c-4.4,3.1 -11.1,8.2 -15,11.3c-6.8,5.4 -12.5,8.9 -14.4,8.9c-2.1,0 -7.6,-31.1 -9.2,-51c-1.7,-22.5 -3,-27.2 -8.5,-31.4c-3,-2.3 -4.1,-2.5 -16.1,-2.7c-18.4,-0.3 -51.2,-3.2 -72.9,-6.4c-17.9,-2.7 -49.3,-14.6 -69,-26c-17.8,-10.4 -43.5,-32.2 -56.5,-48c-6.3,-7.7 -19,-26.3 -25.1,-36.7c-6.2,-10.7 -16.5,-37.1 -18.8,-48.3c-7.9,-39 -6.4,-75 4.4,-108.5c4.5,-13.6 10.4,-28.6 13.2,-33c1.2,-1.9 2.9,-5.4 3.8,-7.8c1,-2.3 2,-4.2 2.4,-4.2c0.4,0 2.2,-2.7 4.1,-6c1.9,-3.3 3.7,-6 4.2,-6c0.5,0 2,-2.5 3.5,-5.6c1.4,-3.1 3.2,-5.8 3.9,-6.1c0.7,-0.2 2.4,-2.2 3.8,-4.4c4.1,-6.1 23.3,-25.5 32.1,-32.4c25.3,-19.8 54.1,-34.2 85.1,-42.6c11.3,-3.1 12.9,-3.3 33.4,-3.6c16.7,-0.4 23.1,-0.1 28.8,1.1c11.1,2.3 22.7,9.1 38.3,22.3c1.4,1.2 2.6,0.5 9,-4.8c7.7,-6.3 18.7,-12.4 27.5,-15.3c12.1,-3.9 17.4,-4.6 35.9,-4.2c15.2,0.3 19.6,0.8 28,2.9z" id="svg_2"/>
  <path transform="translate(-15, 10)" fill="white" d="m212.30828,36.92348c-27.7,4.8 -59.2,19.7 -84.5,40.1c-31.5,25.4 -58.8,73.5 -66.2,116.9c-2.5,15.2 -2.3,45.5 0.5,60.1c5,26.8 16,50.5 34.7,75.4c19.6,25.9 50.4,49.5 72.7,55.4c11.6,3.1 12.6,3 21.9,-1.9c21,-11.3 29.4,-26 24.3,-42.9c-2.6,-8.8 -12.3,-17.4 -21.5,-19.1c-3.9,-0.7 -4.1,-0.6 -5.7,2.8c-2.1,4.4 -8.9,9.8 -14.3,11.2c-4.9,1.4 -12.6,0 -18.3,-3.3c-4.6,-2.6 -9.9,-11.4 -11.7,-19.5c-2.6,-11.5 2.9,-22.1 13.6,-26.1c12,-4.5 22.3,-3.4 30,3.2c3.1,2.7 5.3,3.6 9.8,4.1c18.5,2.3 34,13.3 41.2,29.1c4.5,9.8 5.9,16.4 5.9,28c0,10.3 -1.4,16.4 -5.7,25c-2.2,4.5 -13.2,16.3 -19,20.6l-3.8,2.8l3.3,0.5c1.8,0.3 6.7,1.1 10.8,1.8c4.1,0.7 13.8,1.2 21.5,1.2c12.3,-0.1 15,-0.5 22,-2.8c4.4,-1.4 8.8,-3.2 9.7,-3.9c1.6,-1.3 1.7,-12.1 2,-163.8l0.3,-162.4l-2.3,-5.6c-4.7,-11.7 -16.1,-21 -31.7,-25.9c-9.3,-2.9 -26.3,-3.3 -39.5,-1zm21.5,33.9c8.2,3.7 12.2,11.4 11.1,21.4c-1.2,11.6 -7.4,18.9 -16.3,19c-4.9,0 -11.7,-2.7 -14.2,-5.7c-1.8,-2.2 -3.7,-2 -9.6,0.8c-6.2,2.9 -10.8,7.3 -14.3,14l-2.7,5.1l-0.3,34c-0.2,18.7 -0.1,41.6 0.3,51l0.7,17l16.6,0c15.7,0 17.2,0.2 25,2.8c16.1,5.6 37,22.6 42.7,34.8c3.1,6.7 5.2,15.6 3.9,16.9c-0.9,0.8 -14.3,3 -19,3c-1.8,0 -3.3,-1.3 -5.8,-5.3c-6.8,-10.4 -17.1,-18.4 -29.6,-22.9c-6.3,-2.2 -7.5,-2.3 -41,-2.4c-38.1,-0.1 -36.5,0.1 -51.7,-7c-7.5,-3.6 -18.2,-11.5 -22,-16.2c-5.7,-7.3 -13,-25 -13.9,-33.8c-0.5,-4.5 -1.7,-8.6 -3.6,-12.2c-5.1,-9.8 -3.2,-23.2 4.6,-31.5c3.4,-3.6 12.2,-7.7 16.6,-7.7c6.7,0 11.3,2 16.6,7.4c3.7,3.6 5.6,6.4 6.4,9.6c2.4,9 -0.6,19.4 -8,27.4c-4,4.3 -4.1,4.8 -3.5,8.8c1.6,9.9 6.5,16.3 17,22.5c5,3 7.2,3.7 13.3,4.1l7.2,0.5l-0.1,-49.9c-0.1,-41.6 0.2,-51 1.4,-56.4c1.9,-7.8 9.1,-23.8 11.1,-24.6c0.8,-0.3 1.9,-1.8 2.6,-3.3c1.3,-3.3 13,-12.3 19.8,-15.3c8.2,-3.7 23.5,-7.7 29.2,-7.7c3.3,0 7.1,0.7 9.5,1.8zm12.9,77.5c4.8,2 10.7,7.5 12.7,12.1c2.7,5.8 2.5,14.7 -0.5,21c-2.6,5.6 -8.8,11.7 -14.2,14c-13.5,5.6 -29.7,-5.5 -31.1,-21.2c-0.6,-6.9 2.2,-15.5 6.5,-19.8c6.4,-6.5 18.8,-9.4 26.6,-6.1z" id="svg_3"/>
  <path transform="translate(-20, 10)" fill="white" d="m351.40828,36.72348c-3.6,0.7 -10.7,3.3 -15.8,5.7c-10.2,5 -15.5,10.1 -19.9,19.2l-2.7,5.4l0.2,161.7c0.2,158.3 0.4,170.7 3.4,184.2c1.1,5 1.5,5.5 4.6,6.1c3.7,0.8 4.7,1.8 6.1,6.9c0.7,2.8 3.7,29.2 4.4,39.7c0,1.3 0.2,2.3 0.4,2.3c0.1,0 4.4,-4.3 9.5,-9.6c5.1,-5.3 13.4,-13.7 18.4,-18.7c5.7,-5.5 11.8,-12.8 15.8,-18.8c4.6,-6.9 8.1,-11 12,-13.9c3,-2.2 5.5,-4.4 5.5,-4.8c0,-0.4 -3.5,-2.5 -7.7,-4.7c-5.3,-2.8 -10.3,-6.6 -16.4,-12.5c-8.4,-8.2 -8.8,-8.8 -11.4,-17c-3.9,-12.2 -4.4,-23.1 -1.6,-34c6.4,-24.7 19.9,-37.7 43.2,-41.7c5.2,-0.9 10.5,-2.4 11.9,-3.4c7.6,-5.2 16.6,-6.4 25.5,-3.3c12.4,4.2 19.5,12.3 19.5,22.6c0,4.7 -4.7,15.9 -8.2,19.5c-6.9,7.2 -15.8,9.5 -25.9,6.7c-6.6,-1.9 -11.7,-6 -13.9,-11.4c-1,-2.4 -1.9,-3 -4.2,-3c-11.3,0 -21.9,12.8 -22,26.5c0,7.2 2,13.2 6.8,20.2c4.2,6.2 10,10.1 22,14.9c10.2,4.1 13.9,4.1 25.9,0.1c17.8,-6.1 34.3,-17.6 53.5,-37.3c24.6,-25.2 40.1,-53.9 47,-86.9c2.7,-13 3.8,-40.7 2.1,-53.7c-5.1,-38 -19.4,-70.1 -45.6,-102.3c-10.4,-12.8 -29.7,-29.8 -43.6,-38.2c-20.5,-12.6 -36.8,-19.9 -54.1,-24.3c-12.8,-3.3 -33.8,-4.3 -44.7,-2.2zm33.1,34.1c2.9,1.1 8,2.7 11.3,3.6c25.9,7.2 39.9,25.9 42.4,56.9c0.6,6.1 1.1,29.9 1.3,52.9l0.3,41.7l6,-0.6c11.4,-1.1 25.2,-9.9 29.3,-18.7c1.1,-2.3 2.2,-6.6 2.5,-9.4c0.6,-5.1 0.5,-5.3 -2.6,-6.8c-3.2,-1.5 -7.6,-7.3 -9.7,-12.9c-3.3,-8.8 0.3,-21.6 7.4,-26.5c6.7,-4.6 12.5,-6.2 19.1,-5.1c6.4,1 8.8,2.3 13.9,7.6c6.9,7.1 8.3,17.2 3.7,26.9c-1.9,4.1 -2.7,7.1 -2.4,9.2c1,6.7 -1.6,19.5 -5.6,27.8c-6.5,13.6 -16,22.9 -29.7,29.2c-13,6 -15.7,6.4 -54.4,7.2c-34.7,0.7 -35.7,0.8 -42.8,3.3c-14.5,5.2 -25.4,16.5 -30.1,31c-0.7,2.1 -1.8,3.8 -2.4,3.8c-0.7,0 -6,0.1 -11.9,0.3l-10.8,0.2l0.5,-3c1.9,-11.7 2.8,-15.3 5.5,-21.8c6.5,-15.7 21.2,-29.2 39.5,-36.2c11.8,-4.5 18.1,-5.5 34.2,-5.5l13.3,0l0,-48.8l0,-48.7l-2.4,-5.8c-3.4,-8.3 -7.4,-13.6 -12.5,-16.9c-5.4,-3.4 -11.3,-3.8 -13.3,-0.9c-0.7,1 -3.1,3 -5.2,4.5c-12.1,8.2 -28.7,-4.5 -27,-20.7c1.1,-9.5 4.1,-13.9 12.4,-17.6c5.7,-2.6 13.3,-2.7 20.2,-0.2zm-10.1,78.2c4.4,2.2 9.4,7.7 11.4,12.6c4.8,11.4 -1.9,26.3 -14.7,32.9c-8,4.1 -16.6,2.7 -24.6,-4.1c-5.6,-4.7 -7.6,-9.8 -7.7,-19.1c0,-7.7 0.2,-8.3 3.7,-13.7c7.1,-10.6 20.7,-14.3 31.9,-8.6z" id="svg_4"/>
 </g>

</svg>